<svg width="158" height="44" viewBox="0 0 158 44" fill="none" xmlns="http://www.w3.org/2000/svg">
<path d="M25.04 14.096C24.056 14.096 23.228 13.772 22.556 13.124C21.908 12.452 21.584 11.624 21.584 10.64C21.584 9.656 21.908 8.84 22.556 8.192C23.228 7.52 24.056 7.184 25.04 7.184C26.024 7.184 26.84 7.52 27.488 8.192C28.16 8.84 28.496 9.656 28.496 10.64C28.496 11.624 28.16 12.452 27.488 13.124C26.84 13.772 26.024 14.096 25.04 14.096ZM22.34 33.5V15.716H27.74V33.5H22.34Z" fill="#00AFFF"/>
<path d="M32.5018 33.5V9.956H43.6978C46.0018 9.956 47.7298 10.544 48.8818 11.72C50.0338 12.872 50.6098 14.348 50.6098 16.148C50.6098 17.3 50.3578 18.32 49.8538 19.208C49.3738 20.072 48.6778 20.744 47.7658 21.224V21.296C49.0138 21.752 49.9738 22.484 50.6458 23.492C51.3418 24.476 51.6898 25.664 51.6898 27.056C51.6898 27.992 51.5458 28.856 51.2578 29.648C50.9698 30.416 50.5258 31.088 49.9258 31.664C49.3498 32.24 48.6178 32.696 47.7298 33.032C46.8418 33.344 45.8098 33.5 44.6338 33.5H32.5018ZM38.3338 23.888V28.1H43.4458C44.2858 28.1 44.8738 27.896 45.2098 27.488C45.5458 27.08 45.7138 26.588 45.7138 26.012C45.7138 25.436 45.5218 24.944 45.1378 24.536C44.7778 24.104 44.2138 23.888 43.4458 23.888H38.3338ZM38.3338 15.356V19.208H42.7258C43.4938 19.208 44.0338 19.028 44.3458 18.668C44.6818 18.284 44.8498 17.828 44.8498 17.3C44.8498 16.748 44.7058 16.292 44.4178 15.932C44.1298 15.548 43.5658 15.356 42.7258 15.356H38.3338ZM57.665 14.096C56.681 14.096 55.853 13.772 55.181 13.124C54.533 12.452 54.209 11.624 54.209 10.64C54.209 9.656 54.533 8.84 55.181 8.192C55.853 7.52 56.681 7.184 57.665 7.184C58.649 7.184 59.465 7.52 60.113 8.192C60.785 8.84 61.121 9.656 61.121 10.64C61.121 11.624 60.785 12.452 60.113 13.124C59.465 13.772 58.649 14.096 57.665 14.096ZM54.965 33.5V15.716H60.365V33.5H54.965ZM64.4788 7.94H69.8788V17.552H69.9508C70.4548 16.856 71.1388 16.304 72.0028 15.896C72.8668 15.464 73.8748 15.248 75.0268 15.248C75.9628 15.248 76.9348 15.428 77.9428 15.788C78.9508 16.148 79.8628 16.712 80.6788 17.48C81.5188 18.224 82.2028 19.184 82.7308 20.36C83.2828 21.536 83.5588 22.952 83.5588 24.608C83.5588 25.952 83.3188 27.2 82.8388 28.352C82.3828 29.504 81.7228 30.5 80.8588 31.34C80.0188 32.156 79.0108 32.804 77.8348 33.284C76.6588 33.74 75.3748 33.968 73.9828 33.968C72.5668 33.968 71.2708 33.752 70.0948 33.32C68.9428 32.864 67.9468 32.228 67.1068 31.412C66.2908 30.572 65.6428 29.564 65.1628 28.388C64.7068 27.212 64.4788 25.892 64.4788 24.428V7.94ZM73.9828 28.928C75.2068 28.928 76.1908 28.532 76.9348 27.74C77.7028 26.948 78.0868 25.904 78.0868 24.608C78.0868 23.312 77.7028 22.268 76.9348 21.476C76.1908 20.684 75.2068 20.288 73.9828 20.288C72.7588 20.288 71.7628 20.684 70.9948 21.476C70.2508 22.268 69.8788 23.312 69.8788 24.608C69.8788 25.904 70.2508 26.948 70.9948 27.74C71.7628 28.532 72.7588 28.928 73.9828 28.928ZM98.5492 15.716H103.949V24.932C103.949 26.42 103.733 27.728 103.301 28.856C102.893 29.984 102.305 30.932 101.537 31.7C100.769 32.444 99.8452 33.008 98.7652 33.392C97.6852 33.776 96.4852 33.968 95.1652 33.968C93.8452 33.968 92.6452 33.788 91.5652 33.428C90.4852 33.044 89.5612 32.48 88.7932 31.736C88.0252 30.968 87.4252 30.02 86.9932 28.892C86.5852 27.764 86.3812 26.444 86.3812 24.932V15.716H91.7812V24.932C91.7812 26.348 92.0932 27.368 92.7172 27.992C93.3412 28.616 94.1572 28.928 95.1652 28.928C96.1732 28.928 96.9892 28.616 97.6132 27.992C98.2372 27.368 98.5492 26.348 98.5492 24.932V15.716ZM108.051 33.5V7.94H113.451V33.5H108.051ZM135.925 33.5H130.957V30.728H130.885C130.453 31.712 129.757 32.504 128.797 33.104C127.837 33.68 126.697 33.968 125.377 33.968C124.441 33.968 123.469 33.788 122.461 33.428C121.453 33.068 120.529 32.516 119.689 31.772C118.873 31.004 118.189 30.032 117.637 28.856C117.109 27.68 116.845 26.264 116.845 24.608C116.845 23.264 117.073 22.016 117.529 20.864C118.009 19.712 118.669 18.728 119.509 17.912C120.373 17.072 121.381 16.424 122.533 15.968C123.709 15.488 125.005 15.248 126.421 15.248C127.813 15.248 129.097 15.476 130.273 15.932C131.449 16.364 132.445 17 133.261 17.84C134.101 18.656 134.749 19.652 135.205 20.828C135.685 22.004 135.925 23.324 135.925 24.788V33.5ZM126.421 28.928C127.645 28.928 128.629 28.532 129.373 27.74C130.141 26.948 130.525 25.904 130.525 24.608C130.525 23.312 130.141 22.268 129.373 21.476C128.629 20.684 127.645 20.288 126.421 20.288C125.197 20.288 124.201 20.684 123.433 21.476C122.689 22.268 122.317 23.312 122.317 24.608C122.317 25.904 122.689 26.948 123.433 27.74C124.201 28.532 125.197 28.928 126.421 28.928Z" fill="black"/>
</svg>
